<?xml version="1.0"?>
<svg xmlns="http://www.w3.org/2000/svg" xmlns:xlink="http://www.w3.org/1999/xlink" xmlns:svgjs="http://svgjs.com/svgjs" version="1.1" width="512" height="512" x="0" y="0" viewBox="0 0 511.99 511.99" style="enable-background:new 0 0 512 512" xml:space="preserve" class=""><g><g xmlns="http://www.w3.org/2000/svg"><path d="m498.729 416.373c-6.759-6.75-15.271-11.092-24.499-12.625v-250.35c0-25.916-21.089-47-47.01-47h-56.749l16.767-33.822c3.223-6.492 3.723-13.848 1.408-20.713-2.314-6.865-7.164-12.417-13.656-15.632l-30.366-15.048c-6.491-3.222-13.847-3.723-20.713-1.408-6.863 2.313-12.417 7.161-15.641 13.655l-7.05 14.22c-1.84 3.711-.323 8.211 3.389 10.051 3.71 1.839 8.211.323 10.051-3.389l7.048-14.217c1.441-2.903 3.925-5.072 6.994-6.106 3.066-1.034 6.354-.811 9.258.632l30.371 15.051c2.901 1.437 5.067 3.917 6.101 6.982 1.033 3.066.81 6.352-.632 9.256l-84.725 170.91c-1.957 3.963-5.926 6.533-10.36 6.706l-40.899 1.61c-4.396.175-8.575-2.082-10.859-5.895l-57.68-96.49c-3.426-5.731-1.549-13.185 4.18-16.613l29.102-17.391c2.779-1.661 6.037-2.141 9.173-1.352 3.137.79 5.779 2.754 7.44 5.533l29.27 48.96c1.408 2.356 4.003 3.752 6.732 3.646 2.742-.108 5.207-1.705 6.425-4.164l39.87-80.45c1.839-3.711.321-8.211-3.39-10.05-3.713-1.84-8.211-.321-10.051 3.39l-15.927 32.138h-39.358l-.697-1.166c-3.717-6.217-9.632-10.615-16.655-12.382-7.022-1.767-14.314-.693-20.53 3.023l-17.613 10.525h-92.478c-25.921 0-47.01 21.084-47.01 47v250.355c-21.398 3.586-37.76 22.227-37.76 44.627 0 12.083 4.707 23.45 13.257 32.013 8.549 8.549 19.915 13.257 32.003 13.257h352.3c4.142 0 7.5-3.358 7.5-7.5s-3.358-7.5-7.5-7.5h-352.3c-8.083 0-15.681-3.148-21.393-8.859-5.718-5.727-8.867-13.331-8.867-21.411 0-16.685 13.575-30.26 30.26-30.26h126.296c3.531 18.901 20.141 33.255 40.05 33.255h88.774c19.91 0 36.519-14.354 40.05-33.255h126.3c8.074 0 15.674 3.149 21.393 8.859 5.718 5.727 8.867 13.327 8.867 21.4 0 16.691-13.574 30.27-30.26 30.27h-39.19c-4.142 0-7.5 3.358-7.5 7.5s3.358 7.5 7.5 7.5h39.19c24.957 0 45.26-20.308 45.26-45.27 0-12.076-4.706-23.44-13.261-32.006zm-234.06-294.975-10.405 20.996-12.552-20.996zm35.712 314.978h-88.774c-11.592 0-21.421-7.7-24.64-18.253h138.054c-3.219 10.552-13.048 18.253-24.64 18.253zm-63.062-176.229c.364 0 .73-.007 1.096-.022l40.888-1.61c9.931-.387 18.829-6.156 23.217-15.043l41.678-84.074h64.473c6.926 0 12.56 5.634 12.56 12.56v182.11c0 6.093-4.957 11.05-11.05 11.05h-308.371c-6.093 0-11.05-4.957-11.05-11.05v-182.11c0-6.926 5.634-12.56 12.56-12.56h58.432l52.334 87.547c4.922 8.214 13.751 13.202 23.233 13.202zm-152.549-138.749h72.421c-4.482 6.682-5.839 15.152-3.463 23h-50.408c-15.197 0-27.56 12.363-27.56 27.56v182.11c0 14.364 11.686 26.05 26.05 26.05h308.37c14.364 0 26.05-11.686 26.05-26.05v-182.11c0-15.197-12.363-27.56-27.56-27.56h-57.037l11.402-23h64.185c17.65 0 32.01 14.355 32.01 32v249.722h-406.47v-249.722c0-17.645 14.36-32 32.01-32z" fill="#fed136" data-original="#000000" style="" class=""/></g></g></svg>
